<?xml version="1.0" encoding="utf-8"?>
<!-- Generator: Adobe Illustrator 16.0.0, SVG Export Plug-In . SVG Version: 6.00 Build 0)  -->
<!DOCTYPE svg PUBLIC "-//W3C//DTD SVG 1.1//EN" "http://www.w3.org/Graphics/SVG/1.1/DTD/svg11.dtd">
<svg version="1.1" id="レイヤー_1" xmlns="http://www.w3.org/2000/svg" xmlns:xlink="http://www.w3.org/1999/xlink" x="0px"
	 y="0px" width="512px" height="512px" viewBox="0 0 512 512" enable-background="new 0 0 512 512" xml:space="preserve">
<path id="shopping-cart-2-icon" d="M316.566,380c0,14.852-12.039,26.891-26.892,26.891c-14.852,0-26.89-12.039-26.89-26.891
	c0-14.853,12.039-26.892,26.891-26.892C304.528,353.109,316.566,365.148,316.566,380z M227.682,380
	c0,14.852-12.039,26.891-26.892,26.891c-14.852,0-26.891-12.039-26.891-26.891c0-14.853,12.039-26.892,26.891-26.892
	C215.643,353.109,227.682,365.148,227.682,380z M389.609,105.109l-59.18,188.166H159.338l-47.582-109.666h181.875L269.023,269
	h39.795l37.346-125.392H50.418l82.914,189.666h0.275h226.07l59.178-188.166h29.98l12.745-40H389.609z"/>
</svg>
